<svg width="15" height="15" fill="none" xmlns="http://www.w3.org/2000/svg"><rect width="15" height="15" rx="7.5" fill="url(#paint0_linear)"/><path fill-rule="evenodd" clip-rule="evenodd" d="M12.125 5.22a1 1 0 01.156 1.405l-4 5A1 1 0 017.5 12H7a1 1 0 01-.707-.293l-2.5-2.5a1 1 0 011.414-1.414L7.195 9.78l3.524-4.406a1 1 0 011.406-.156z" fill="#000" fill-opacity=".25"/><path fill-rule="evenodd" clip-rule="evenodd" d="M11.625 4.22a1 1 0 01.156 1.405l-4 5a1 1 0 01-1.488.082l-2.5-2.5a1 1 0 011.414-1.414l1.71 1.71 3.302-4.128a1 1 0 011.406-.156z" fill="#fff"/><defs><linearGradient id="paint0_linear" x1="7.5" y1="0" x2="7.5" y2="15" gradientUnits="userSpaceOnUse"><stop stop-color="#FDB52B"/><stop offset="1" stop-color="#F7752C"/></linearGradient></defs></svg>